<?xml version="1.0" encoding="UTF-8"?>
<svg id="Ebene_1" data-name="Ebene 1" xmlns="http://www.w3.org/2000/svg" xmlns:xlink="http://www.w3.org/1999/xlink" viewBox="0 0 168 168">
  <defs>
    <style>
      .cls-1 {
        clip-path: url(#clippath);
      }

      .cls-2 {
        fill: none;
      }

      .cls-2, .cls-3, .cls-4, .cls-5 {
        stroke-width: 0px;
      }

      .cls-3 {
        fill: #e24658;
      }

      .cls-4 {
        fill: #004646;
      }

      .cls-5 {
        fill: #666276;
      }
    </style>
    <clipPath id="clippath">
      <rect class="cls-2" x="58.7" y="37.09" width="52.23" height="52.23"/>
    </clipPath>
  </defs>
  <polygon class="cls-5" points="52.12 41.11 44.91 41.11 44.91 48.31 40.56 48.31 40.56 41.11 33.36 41.11 33.36 36.76 40.56 36.76 40.56 29.56 44.91 29.56 44.91 36.76 52.12 36.76 52.12 41.11"/>
  <polygon class="cls-5" points="139.12 51.35 131.92 51.35 131.92 58.55 127.56 58.55 127.56 51.35 120.36 51.35 120.36 46.99 127.56 46.99 127.56 39.79 131.92 39.79 131.92 46.99 139.12 46.99 139.12 51.35"/>
  <polygon class="cls-4" points="71.26 21.97 64.06 21.97 64.06 29.17 59.7 29.17 59.7 21.97 52.5 21.97 52.5 17.62 59.7 17.62 59.7 10.41 64.06 10.41 64.06 17.62 71.26 17.62 71.26 21.97"/>
  <g>
    <g class="cls-1">
      <path class="cls-3" d="m103.11,81.45c-3.51,3.51-7.47,5.84-11.87,7.01-4.39,1.16-8.78,1.13-13.14-.11-3.04-.86-5.83-2.21-8.35-4.1-1.13-.8-2.2-1.73-3.22-2.75-1.11-1.11-2.09-2.27-2.97-3.5-1.31-1.81-2.38-3.81-3.17-5.9-1.9-5.06-2.18-10.2-.86-15.36,1.16-4.42,3.49-8.38,7-11.89,3.49-3.49,7.43-5.8,11.85-6.96,4.42-1.13,8.82-1.09,13.17.14,3.01.86,5.77,2.18,8.3,4.05l-6.57,6.57c-1.19-.69-2.44-1.23-3.74-1.59-2.61-.7-5.27-.61-7.98.25-2.71.88-5.27,2.51-7.66,4.9-2.39,2.39-4.02,4.96-4.92,7.68-.88,2.73-.98,5.4-.3,8.04.34,1.31.88,2.57,1.57,3.76.73,1.2,1.62,2.33,2.69,3.41.55.55,1.11,1.05,1.69,1.51.88.7,2.15.61,2.95-.18l7.25-7.25,19.13-19.13c1.02-1.02,2.76-.81,3.49.44,1.11,1.89,1.96,3.9,2.56,6.02,1.21,4.34,1.24,8.73.08,13.12-1.17,4.4-3.48,8.34-6.97,11.83"/>
    </g>
    <path class="cls-4" d="m134.38,115.66c-14.54,14.18-31.65,22.09-45.22,22.18v34.34h-11.87v-34.34c-13.6-.38-30.58-8.73-44.81-23.31-16.37-16.78-24.39-37.01-21.67-51.24,14.31-2.36,34.32,6.15,50.7,22.93,12.38,12.68,19.99,27.34,21.78,39.89,2.06-12.53,10.04-27.05,22.77-39.47,16.78-16.37,37.01-24.39,51.25-21.68,2.36,14.31-6.15,34.33-22.94,50.7Z"/>
  </g>
</svg>