<svg width="228" height="845" viewBox="0 0 228 845" fill="none" xmlns="http://www.w3.org/2000/svg">
<path d="M747.295 717.797C688.271 774.54 621.555 812.316 547.482 831.284C473.576 850.092 399.67 849.609 326.266 829.516C275.1 815.692 228.282 793.83 185.644 763.127C166.583 750.107 148.691 735.157 131.469 718.6C112.742 700.597 96.3554 681.789 81.4739 662.017C59.4025 632.601 41.3441 600.451 28.1347 566.534C-3.80201 484.713 -8.48382 401.607 13.7548 318.018C33.3181 246.486 72.6119 182.509 131.636 125.765C190.661 69.0212 256.708 31.8886 330.948 13.242C405.355 -5.0832 479.428 -4.44022 552.665 15.4924C603.329 29.3167 649.813 50.8568 692.284 80.9165L581.759 187.17C561.695 176.079 540.626 167.238 518.722 161.451C474.747 150.038 429.935 151.645 384.454 165.469C338.974 179.776 295.667 206.138 255.537 244.718C215.407 283.297 187.985 324.931 172.769 368.975C157.888 413.181 156.216 456.261 167.586 499.02C173.438 520.238 182.467 540.493 194.005 559.782C206.378 579.233 221.26 597.558 239.318 614.918C248.514 623.76 258.045 631.958 267.743 639.352C282.625 650.604 304.027 649.318 317.404 636.459L439.466 519.113L761.508 209.514C778.73 192.957 807.824 196.333 820.198 216.587C838.925 247.129 853.138 279.6 863.337 314C883.737 384.086 884.238 455.136 864.675 526.186C844.944 597.397 806.152 661.053 747.295 717.636V717.797Z" fill="#E64658"/>
</svg>
