<svg width="225" height="35" viewBox="0 0 225 35" fill="none" xmlns="http://www.w3.org/2000/svg">
<g clip-path="url(#clip0_119_3274)">
<path d="M22.3032 22.4144C20.5415 24.1069 18.5503 25.2336 16.3395 25.7993C14.1336 26.3603 11.9278 26.3459 9.73694 25.7466C8.20982 25.3343 6.81246 24.6822 5.53987 23.7665C4.97094 23.3781 4.43695 22.9322 3.92292 22.4384C3.36398 21.9014 2.8749 21.3404 2.43074 20.7507C1.77198 19.8733 1.233 18.9144 0.838746 17.9028C-0.114453 15.4624 -0.254189 12.9836 0.409557 10.4904C0.993454 8.35688 2.16624 6.44866 3.92791 4.75619C5.68958 3.06373 7.66086 1.95619 9.87667 1.40003C12.0975 0.853452 14.3083 0.87263 16.4942 1.46715C18.0063 1.87948 19.3937 2.52194 20.6613 3.41852L17.3625 6.5877C16.7637 6.25688 16.1349 5.99318 15.4811 5.82058C14.1686 5.48016 12.8311 5.52811 11.4737 5.94044C10.1162 6.36715 8.82366 7.15345 7.62593 8.30414C6.42819 9.45482 5.60973 10.6966 5.15559 12.0103C4.71143 13.3288 4.66153 14.6137 5.00088 15.8891C5.17555 16.5219 5.44505 17.1261 5.7894 17.7014C6.1587 18.2815 6.60286 18.8281 7.14184 19.3459C7.41632 19.6096 7.70078 19.8541 7.99024 20.0747C8.4344 20.4103 9.07319 20.3719 9.47244 19.9884L13.1156 16.4884L22.7274 7.25414C23.2414 6.7603 24.1098 6.86099 24.4791 7.4651C25.038 8.37605 25.4622 9.34455 25.7667 10.3706C26.3755 12.461 26.3905 14.5802 25.8066 16.6993C25.2177 18.8233 24.0599 20.7219 22.3032 22.4096V22.4144Z" fill="#E64658"/>
<path d="M38.103 7.17741C39.2309 5.27878 40.768 3.80207 42.7193 2.74248C44.6706 1.68289 46.8565 1.1507 49.2819 1.1507C52.1166 1.1507 54.6019 1.8507 56.7329 3.2459C58.8638 4.6459 60.356 6.57809 61.2044 9.04248H55.3505C54.7716 7.87741 53.9481 7.00481 52.8951 6.42467C51.8421 5.84453 50.6244 5.55207 49.242 5.55207C47.7648 5.55207 46.4473 5.88289 45.2995 6.54453C44.1466 7.21097 43.2483 8.1459 42.6095 9.35412C41.9657 10.5671 41.6464 11.9863 41.6464 13.6164C41.6464 15.2466 41.9657 16.637 42.6095 17.8596C43.2533 19.0822 44.1466 20.0267 45.2995 20.6884C46.4473 21.35 47.7648 21.6856 49.242 21.6856C50.6244 21.6856 51.8421 21.3884 52.8951 20.7938C53.9481 20.1993 54.7666 19.3219 55.3505 18.1569H61.2044C60.356 20.65 58.8688 22.587 56.7478 23.9726C54.6268 25.3582 52.1365 26.0534 49.2769 26.0534C46.8515 26.0534 44.6656 25.526 42.7143 24.4664C40.763 23.4069 39.2259 21.9349 38.0981 20.0459C36.9702 18.1569 36.4062 16.0185 36.4062 13.6164C36.4062 11.2144 36.9702 9.07124 38.0981 7.17261L38.103 7.17741Z" fill="#004646"/>
<path d="M69.2794 24.9219C67.7274 24.0972 66.5097 22.9274 65.6263 21.4123C64.738 19.8972 64.2988 18.152 64.2988 16.1719C64.2988 14.1918 64.753 12.4466 65.6613 10.9315C66.5695 9.41642 67.8122 8.24655 69.3892 7.4219C70.9662 6.59244 72.7229 6.18011 74.6593 6.18011C76.5956 6.18011 78.3573 6.59244 79.9293 7.4219C81.5063 8.24655 82.749 9.41642 83.6573 10.9315C84.5655 12.4466 85.0197 14.1918 85.0197 16.1719C85.0197 18.152 84.5506 19.8972 83.6223 21.4123C82.6891 22.9274 81.4265 24.0972 79.8395 24.9219C78.2525 25.7513 76.4758 26.1637 74.5145 26.1637C72.5532 26.1637 70.8315 25.7513 69.2794 24.9219ZM77.1146 21.2541C77.9281 20.8226 78.5769 20.1753 79.0609 19.3171C79.545 18.4541 79.7896 17.4089 79.7896 16.1719C79.7896 14.3308 79.2855 12.9164 78.2824 11.9287C77.2793 10.9411 76.0466 10.4424 74.5944 10.4424C73.1421 10.4424 71.9244 10.9363 70.9413 11.9287C69.9581 12.9212 69.4691 14.3308 69.4691 16.1719C69.4691 18.013 69.9482 19.4274 70.9063 20.415C71.8645 21.4027 73.0723 21.9013 74.5245 21.9013C75.4478 21.9013 76.3111 21.6856 77.1246 21.2541H77.1146Z" fill="#004646"/>
<path d="M88.6778 10.8979C89.4912 9.38285 90.5941 8.22258 91.9865 7.40272C93.3789 6.58765 94.9359 6.18011 96.6577 6.18011C98.1599 6.18011 99.4774 6.47258 100.6 7.05272C101.728 7.63285 102.631 8.36642 103.31 9.2534V6.49655H108.435V25.8472H103.31V23.0185C102.656 23.9246 101.753 24.6774 100.6 25.2719C99.4474 25.8664 98.1199 26.1637 96.6178 26.1637C94.921 26.1637 93.3739 25.7418 91.9815 24.9075C90.5892 24.0733 89.4862 22.889 88.6728 21.3644C87.8593 19.8397 87.4551 18.0849 87.4551 16.1096C87.4551 14.1342 87.8593 12.4178 88.6728 10.9075L88.6778 10.8979ZM102.586 13.1178C102.102 12.2692 101.449 11.6171 100.625 11.1616C99.8018 10.7061 98.9184 10.4808 97.9702 10.4808C97.022 10.4808 96.1536 10.7013 95.3502 11.1424C94.5517 11.5835 93.9029 12.2308 93.4038 13.0794C92.9048 13.9281 92.6553 14.9349 92.6553 16.1C92.6553 17.265 92.9048 18.2815 93.4038 19.1589C93.8979 20.0315 94.5517 20.7027 95.3651 21.1678C96.1786 21.6329 97.042 21.8678 97.9652 21.8678C98.8885 21.8678 99.7968 21.6424 100.62 21.187C101.444 20.7315 102.097 20.0842 102.582 19.2308C103.066 18.3822 103.31 17.3609 103.31 16.1719C103.31 14.9829 103.066 13.9664 102.582 13.113L102.586 13.1178Z" fill="#004646"/>
<path d="M112.657 10.9171C113.506 9.41642 114.684 8.25135 116.186 7.4219C117.688 6.59244 119.41 6.18011 121.351 6.18011C123.846 6.18011 125.912 6.77943 127.549 7.97806C129.186 9.17669 130.284 10.8596 130.838 13.0267H125.348C125.059 12.1876 124.565 11.5308 123.876 11.0561C123.187 10.5767 122.329 10.337 121.311 10.337C119.859 10.337 118.706 10.8452 117.858 11.8568C117.009 12.8685 116.585 14.3068 116.585 16.1719C116.585 18.037 117.009 19.437 117.858 20.4486C118.706 21.4603 119.859 21.9685 121.311 21.9685C123.372 21.9685 124.715 21.0815 125.348 19.3123H130.838C130.279 21.4075 129.176 23.076 127.529 24.3082C125.882 25.5452 123.821 26.1589 121.351 26.1589C119.41 26.1589 117.693 25.7466 116.186 24.9171C114.684 24.0924 113.506 22.9274 112.657 21.4219C111.809 19.9164 111.385 18.1664 111.385 16.1671C111.385 14.1678 111.809 12.413 112.657 10.9123V10.9171Z" fill="#004646"/>
<path d="M149.269 7.1774C150.456 7.81986 151.385 8.75959 152.048 10.0062C152.712 11.2527 153.046 12.7486 153.046 14.4938V25.8473H147.956V15.1603C147.956 13.626 147.557 12.4418 146.758 11.6171C145.96 10.7925 144.867 10.3753 143.484 10.3753C142.102 10.3753 140.969 10.7877 140.156 11.6171C139.342 12.4466 138.938 13.626 138.938 15.1603V25.8473H133.848V0H138.938V8.90822C139.592 8.06918 140.465 7.41233 141.558 6.93288C142.651 6.45822 143.859 6.21849 145.196 6.21849C146.723 6.21849 148.081 6.53973 149.269 7.1774Z" fill="#004646"/>
<path d="M157.068 10.8979C157.882 9.38288 158.99 8.2226 160.397 7.40274C161.804 6.58288 163.366 6.18014 165.088 6.18014C166.396 6.18014 167.643 6.45342 168.831 7C170.019 7.54658 170.962 8.27534 171.666 9.18151V0H176.831V25.8473H171.666V22.9849C171.037 23.939 170.149 24.711 169.011 25.2911C167.873 25.8712 166.55 26.1637 165.048 26.1637C163.352 26.1637 161.799 25.7418 160.392 24.9075C158.985 24.0733 157.877 22.889 157.063 21.3644C156.25 19.8397 155.846 18.0849 155.846 16.1096C155.846 14.1342 156.25 12.4178 157.063 10.9075L157.068 10.8979ZM170.977 13.1178C170.493 12.2692 169.839 11.6171 169.016 11.1616C168.192 10.7062 167.309 10.4808 166.361 10.4808C165.413 10.4808 164.544 10.7014 163.741 11.1425C162.942 11.5836 162.294 12.2308 161.794 13.0795C161.295 13.9281 161.046 14.9349 161.046 16.1C161.046 17.2651 161.295 18.2815 161.794 19.1589C162.289 20.0315 162.942 20.7027 163.756 21.1678C164.569 21.6329 165.433 21.8678 166.356 21.8678C167.279 21.8678 168.187 21.6425 169.011 21.187C169.834 20.7315 170.488 20.0842 170.972 19.2308C171.456 18.3822 171.701 17.361 171.701 16.1719C171.701 14.9829 171.456 13.9664 170.972 13.113L170.977 13.1178Z" fill="#004646"/>
<path d="M180.988 10.8979C181.802 9.38285 182.905 8.22258 184.297 7.40272C185.689 6.58285 187.246 6.18011 188.968 6.18011C190.47 6.18011 191.788 6.47258 192.911 7.05272C194.039 7.63285 194.942 8.36642 195.621 9.2534V6.49655H200.746V25.8472H195.621V23.0185C194.967 23.9246 194.064 24.6774 192.911 25.2719C191.758 25.8664 190.43 26.1637 188.928 26.1637C187.232 26.1637 185.684 25.7418 184.292 24.9075C182.9 24.0733 181.797 22.889 180.983 21.3644C180.17 19.8397 179.766 18.0849 179.766 16.1096C179.766 14.1342 180.17 12.4178 180.983 10.9075L180.988 10.8979ZM194.897 13.1178C194.413 12.2692 193.759 11.6171 192.936 11.1616C192.112 10.7061 191.229 10.4808 190.281 10.4808C189.333 10.4808 188.464 10.7013 187.661 11.1424C186.862 11.5835 186.213 12.2308 185.714 13.0794C185.215 13.9281 184.966 14.9349 184.966 16.1C184.966 17.265 185.215 18.2815 185.714 19.1589C186.208 20.0315 186.862 20.7027 187.676 21.1678C188.489 21.6329 189.353 21.8678 190.276 21.8678C191.199 21.8678 192.107 21.6424 192.931 21.187C193.754 20.7315 194.408 20.0842 194.892 19.2308C195.376 18.3822 195.621 17.3609 195.621 16.1719C195.621 14.9829 195.376 13.9664 194.892 13.113L194.897 13.1178Z" fill="#004646"/>
<path d="M225 6.49658L212.529 35H207.114L211.476 25.3582L203.406 6.49658H209.115L214.316 20.0123L219.586 6.49658H225.005H225Z" fill="#004646"/>
</g>
<defs>
<clipPath id="clip0_119_3274">
<rect width="225" height="35" fill="white"/>
</clipPath>
</defs>
</svg>
