<svg width="225" height="36" viewBox="0 0 225 36" fill="none" xmlns="http://www.w3.org/2000/svg">
<g clip-path="url(#clip0_119_2783)">
<path d="M22.3032 23.054C20.5415 24.743 18.5503 25.8674 16.3395 26.432C14.1336 26.9918 11.9278 26.9774 9.73694 26.3794C8.20982 25.9679 6.81246 25.3171 5.53987 24.4033C4.97094 24.0157 4.43695 23.5707 3.92292 23.0779C3.36398 22.542 2.8749 21.9822 2.43074 21.3937C1.77198 20.5181 1.233 19.5611 0.838746 18.5516C-0.114453 16.1162 -0.254189 13.6425 0.409557 11.1544C0.993454 9.02523 2.16624 7.12092 3.92791 5.43192C5.68958 3.74292 7.66086 2.63765 9.87667 2.08263C12.0975 1.53717 14.3083 1.55631 16.4942 2.14961C18.0063 2.5611 19.3937 3.20225 20.6613 4.09699L17.3625 7.25968C16.7637 6.92953 16.1349 6.66637 15.4811 6.49413C14.1686 6.15441 12.8311 6.20226 11.4737 6.61374C10.1162 7.03958 8.82366 7.82427 7.62593 8.9726C6.42819 10.1209 5.60973 11.3602 5.15559 12.6712C4.71143 13.987 4.66153 15.2693 5.00088 16.542C5.17555 17.1736 5.44505 17.7765 5.7894 18.3506C6.1587 18.9296 6.60286 19.475 7.14184 19.9918C7.41632 20.2549 7.70078 20.499 7.99024 20.719C8.4344 21.054 9.07319 21.0157 9.47244 20.6329L13.1156 17.1401L22.7274 7.92475C23.2414 7.43193 24.1098 7.53241 24.4791 8.13528C25.038 9.04437 25.4622 10.0109 25.7667 11.0348C26.3755 13.1209 26.3905 15.2358 25.8066 17.3506C25.2177 19.4702 24.0599 21.365 22.3032 23.0492V23.054Z" fill="#E64658"/>
<path d="M38.103 7.84836C39.2309 5.95361 40.768 4.47993 42.7193 3.42251C44.6706 2.36509 46.8565 1.83398 49.2819 1.83398C52.1166 1.83398 54.6019 2.53255 56.7329 3.9249C58.8638 5.32203 60.356 7.25027 61.2044 9.70961H55.3505C54.7716 8.54692 53.9481 7.67611 52.8951 7.09716C51.8421 6.51821 50.6244 6.22634 49.242 6.22634C47.7648 6.22634 46.4473 6.55649 45.2995 7.21678C44.1466 7.88185 43.2483 8.81487 42.6095 10.0206C41.9657 11.2311 41.6464 12.6474 41.6464 14.2742C41.6464 15.901 41.9657 17.2886 42.6095 18.5087C43.2533 19.7288 44.1466 20.6714 45.2995 21.3317C46.4473 21.9919 47.7648 22.3269 49.242 22.3269C50.6244 22.3269 51.8421 22.0302 52.8951 21.4369C53.9481 20.8436 54.7666 19.968 55.3505 18.8053H61.2044C60.356 21.2934 58.8688 23.2264 56.7478 24.6092C54.6268 25.992 52.1365 26.6857 49.2769 26.6857C46.8515 26.6857 44.6656 26.1594 42.7143 25.102C40.763 24.0446 39.2259 22.5757 38.0981 20.6905C36.9702 18.8053 36.4062 16.6713 36.4062 14.2742C36.4062 11.8771 36.9702 9.73831 38.0981 7.84357L38.103 7.84836Z" fill="white"/>
<path d="M69.2794 25.5564C67.7274 24.7335 66.5097 23.566 65.6263 22.054C64.738 20.5421 64.2988 18.8004 64.2988 16.8243C64.2988 14.8483 64.753 13.1066 65.6613 11.5947C66.5695 10.0827 67.8122 8.91523 69.3892 8.09227C70.9662 7.26451 72.7229 6.85303 74.6593 6.85303C76.5956 6.85303 78.3573 7.26451 79.9293 8.09227C81.5063 8.91523 82.749 10.0827 83.6573 11.5947C84.5655 13.1066 85.0197 14.8483 85.0197 16.8243C85.0197 18.8004 84.5506 20.5421 83.6223 22.054C82.6891 23.566 81.4265 24.7335 79.8395 25.5564C78.2525 26.3842 76.4758 26.7957 74.5145 26.7957C72.5532 26.7957 70.8315 26.3842 69.2794 25.5564ZM77.1146 21.8961C77.9281 21.4655 78.5769 20.8196 79.0609 19.9631C79.545 19.1019 79.7896 18.0588 79.7896 16.8243C79.7896 14.987 79.2855 13.5755 78.2824 12.5899C77.2793 11.6042 76.0466 11.1066 74.5944 11.1066C73.1421 11.1066 71.9244 11.5995 70.9413 12.5899C69.9581 13.5803 69.4691 14.987 69.4691 16.8243C69.4691 18.6617 69.9482 20.0732 70.9063 21.0588C71.8645 22.0445 73.0723 22.5421 74.5245 22.5421C75.4478 22.5421 76.3111 22.3268 77.1246 21.8961H77.1146Z" fill="white"/>
<path d="M88.6778 11.5612C89.4912 10.0492 90.5941 8.89131 91.9865 8.07313C93.3789 7.25973 94.9359 6.85303 96.6577 6.85303C98.1599 6.85303 99.4774 7.14489 100.6 7.72384C101.728 8.30279 102.631 9.03485 103.31 9.92002V7.16882H108.435V26.4799H103.31V23.6569C102.656 24.5612 101.753 25.3124 100.6 25.9057C99.4474 26.499 98.1199 26.7957 96.6178 26.7957C94.921 26.7957 93.3739 26.3746 91.9815 25.5421C90.5892 24.7095 89.4862 23.5277 88.6728 22.0062C87.8593 20.4846 87.4551 18.7334 87.4551 16.7621C87.4551 14.7909 87.8593 13.0779 88.6728 11.5707L88.6778 11.5612ZM102.586 13.7765C102.102 12.9296 101.449 12.2789 100.625 11.8243C99.8018 11.3698 98.9184 11.1449 97.9702 11.1449C97.022 11.1449 96.1536 11.365 95.3502 11.8052C94.5517 12.2454 93.9029 12.8913 93.4038 13.7382C92.9048 14.5851 92.6553 15.5899 92.6553 16.7526C92.6553 17.9153 92.9048 18.9296 93.4038 19.8052C93.8979 20.676 94.5517 21.3459 95.3651 21.81C96.1786 22.2741 97.042 22.5086 97.9652 22.5086C98.8885 22.5086 99.7968 22.2837 100.62 21.8291C101.444 21.3746 102.097 20.7287 102.582 19.877C103.066 19.0301 103.31 18.011 103.31 16.8243C103.31 15.6377 103.066 14.6234 102.582 13.7717L102.586 13.7765Z" fill="white"/>
<path d="M112.657 11.5803C113.506 10.0827 114.684 8.92002 116.186 8.09227C117.688 7.26451 119.41 6.85303 121.351 6.85303C123.846 6.85303 125.912 7.45111 127.549 8.64729C129.186 9.84347 130.284 11.5229 130.838 13.6856H125.348C125.059 12.8483 124.565 12.1928 123.876 11.7191C123.187 11.2406 122.329 11.0014 121.311 11.0014C119.859 11.0014 118.706 11.5085 117.858 12.5181C117.009 13.5277 116.585 14.9631 116.585 16.8243C116.585 18.6856 117.009 20.0827 117.858 21.0923C118.706 22.1019 119.859 22.6091 121.311 22.6091C123.372 22.6091 124.715 21.7239 125.348 19.9583H130.838C130.279 22.0492 129.176 23.7143 127.529 24.944C125.882 26.1784 123.821 26.7909 121.351 26.7909C119.41 26.7909 117.693 26.3794 116.186 25.5516C114.684 24.7287 113.506 23.566 112.657 22.0636C111.809 20.5612 111.385 18.8148 111.385 16.8196C111.385 14.8243 111.809 13.0731 112.657 11.5755V11.5803Z" fill="white"/>
<path d="M149.269 7.84825C150.456 8.4894 151.385 9.4272 152.048 10.6712C152.712 11.9152 153.046 13.4081 153.046 15.1497V26.4799H147.956V15.8148C147.956 14.2837 147.557 13.1019 146.758 12.2789C145.96 11.4559 144.867 11.0396 143.484 11.0396C142.102 11.0396 140.969 11.4511 140.156 12.2789C139.342 13.1066 138.938 14.2837 138.938 15.8148V26.4799H133.848V0.685547H138.938V9.57553C139.592 8.7382 140.465 8.0827 141.558 7.60423C142.651 7.13054 143.859 6.89131 145.196 6.89131C146.723 6.89131 148.081 7.21188 149.269 7.84825Z" fill="white"/>
<path d="M157.068 11.5612C157.882 10.0492 158.99 8.89131 160.397 8.07313C161.804 7.25494 163.366 6.85303 165.088 6.85303C166.396 6.85303 167.643 7.12576 168.831 7.67121C170.019 8.21667 170.962 8.94394 171.666 9.84825V0.685547H176.831V26.4799H171.666V23.6234C171.037 24.5756 170.149 25.3459 169.011 25.9249C167.873 26.5038 166.55 26.7957 165.048 26.7957C163.352 26.7957 161.799 26.3746 160.392 25.5421C158.985 24.7095 157.877 23.5277 157.063 22.0062C156.25 20.4846 155.846 18.7334 155.846 16.7621C155.846 14.7909 156.25 13.0779 157.063 11.5707L157.068 11.5612ZM170.977 13.7765C170.493 12.9296 169.839 12.2789 169.016 11.8243C168.192 11.3698 167.309 11.1449 166.361 11.1449C165.413 11.1449 164.544 11.365 163.741 11.8052C162.942 12.2454 162.294 12.8913 161.794 13.7382C161.295 14.5851 161.046 15.5899 161.046 16.7526C161.046 17.9153 161.295 18.9296 161.794 19.8052C162.289 20.676 162.942 21.3459 163.756 21.81C164.569 22.2741 165.433 22.5086 166.356 22.5086C167.279 22.5086 168.187 22.2837 169.011 21.8291C169.834 21.3746 170.488 20.7287 170.972 19.877C171.456 19.0301 171.701 18.011 171.701 16.8243C171.701 15.6377 171.456 14.6234 170.972 13.7717L170.977 13.7765Z" fill="white"/>
<path d="M180.988 11.5612C181.802 10.0492 182.905 8.89131 184.297 8.07313C185.689 7.25494 187.246 6.85303 188.968 6.85303C190.47 6.85303 191.788 7.14489 192.911 7.72384C194.039 8.30279 194.942 9.03485 195.621 9.92002V7.16882H200.746V26.4799H195.621V23.6569C194.967 24.5612 194.064 25.3124 192.911 25.9057C191.758 26.499 190.43 26.7957 188.928 26.7957C187.232 26.7957 185.684 26.3746 184.292 25.5421C182.9 24.7095 181.797 23.5277 180.983 22.0062C180.17 20.4846 179.766 18.7334 179.766 16.7621C179.766 14.7909 180.17 13.0779 180.983 11.5707L180.988 11.5612ZM194.897 13.7765C194.413 12.9296 193.759 12.2789 192.936 11.8243C192.112 11.3698 191.229 11.1449 190.281 11.1449C189.333 11.1449 188.464 11.365 187.661 11.8052C186.862 12.2454 186.213 12.8913 185.714 13.7382C185.215 14.5851 184.966 15.5899 184.966 16.7526C184.966 17.9153 185.215 18.9296 185.714 19.8052C186.208 20.676 186.862 21.3459 187.676 21.81C188.489 22.2741 189.353 22.5086 190.276 22.5086C191.199 22.5086 192.107 22.2837 192.931 21.8291C193.754 21.3746 194.408 20.7287 194.892 19.877C195.376 19.0301 195.621 18.011 195.621 16.8243C195.621 15.6377 195.376 14.6234 194.892 13.7717L194.897 13.7765Z" fill="white"/>
<path d="M225 7.16895L212.529 35.614H207.114L211.476 25.992L203.406 7.16895H209.115L214.316 20.657L219.586 7.16895H225.005H225Z" fill="white"/>
</g>
<defs>
<clipPath id="clip0_119_2783">
<rect width="225" height="34.9283" fill="white" transform="translate(0 0.685547)"/>
</clipPath>
</defs>
</svg>
