<?xml version="1.0" standalone="no"?>
<!DOCTYPE svg PUBLIC "-//W3C//DTD SVG 20010904//EN"
 "http://www.w3.org/TR/2001/REC-SVG-20010904/DTD/svg10.dtd">
<svg version="1.0" xmlns="http://www.w3.org/2000/svg"
 width="700.000000pt" height="700.000000pt" viewBox="0 0 700.000000 700.000000"
 preserveAspectRatio="xMidYMid meet">
<metadata>
Created by potrace 1.14, written by Peter Selinger 2001-2017
</metadata>
<g transform="translate(0.000000,700.000000) scale(0.100000,-0.100000)"
fill="#000000" stroke="none">
<path d="M3278 6995 c-1 -1 -42 -5 -89 -9 -47 -4 -95 -8 -106 -10 -11 -3 -44
-7 -74 -11 -30 -4 -99 -16 -154 -27 -55 -11 -111 -22 -125 -24 -44 -8 -234
-63 -336 -98 -246 -83 -489 -202 -724 -354 -97 -63 -253 -173 -270 -192 -3 -3
-41 -34 -85 -70 -193 -157 -421 -391 -584 -600 -28 -36 -55 -70 -60 -76 -22
-27 -142 -205 -178 -264 -73 -119 -151 -268 -203 -385 -12 -27 -31 -69 -41
-92 -11 -23 -19 -48 -19 -55 0 -8 -4 -18 -9 -23 -23 -25 -130 -396 -156 -540
-49 -269 -59 -386 -60 -645 0 -179 8 -344 20 -416 2 -16 11 -72 20 -124 22
-139 25 -152 35 -185 5 -16 12 -42 15 -57 3 -16 7 -39 10 -52 8 -38 84 -288
94 -311 5 -11 28 -69 51 -130 112 -289 299 -609 520 -889 58 -74 244 -276 321
-352 347 -335 769 -608 1193 -771 105 -40 317 -109 385 -124 25 -6 53 -12 61
-14 72 -17 203 -45 240 -50 25 -4 52 -8 60 -10 8 -2 44 -6 80 -10 36 -4 76 -9
90 -12 43 -8 481 -11 565 -3 137 13 289 37 480 75 276 55 689 221 970 390 326
196 681 495 915 770 24 28 46 52 49 55 15 13 157 199 215 282 203 296 359 617
458 943 39 127 90 345 102 435 3 25 8 56 10 70 37 212 42 638 11 865 -7 57
-18 130 -21 140 -1 6 -4 26 -8 45 -49 298 -159 628 -311 930 -82 163 -117 222
-155 259 -100 95 -271 106 -378 24 -19 -14 -840 -832 -1826 -1818 -1671 -1671
-1795 -1793 -1846 -1813 -65 -24 -173 -24 -232 2 -39 17 -182 132 -258 208
-74 74 -180 190 -208 227 -15 20 -35 44 -44 55 -28 31 -118 165 -118 176 0 5
-4 10 -9 10 -13 0 -135 253 -174 360 -32 88 -64 201 -73 260 -3 14 -7 36 -9
50 -3 14 -8 36 -10 50 -23 120 -24 417 0 537 2 11 6 38 9 59 54 342 257 770
508 1070 587 702 1290 1049 2003 991 72 -6 167 -21 280 -45 92 -20 269 -87
400 -152 l140 -69 437 437 c241 240 438 439 438 442 0 6 -220 153 -308 205
-34 20 -124 67 -200 105 -341 168 -711 282 -1072 330 -41 5 -95 12 -120 15
-47 7 -526 16 -532 10z"/>
</g>
</svg>
